<?xml version="1.0" encoding="utf-8"?>
<!-- Generator: Adobe Illustrator 21.0.0, SVG Export Plug-In . SVG Version: 6.00 Build 0)  -->
<svg width="26" height="24" viewBox="0 0 26 24" fill="none" xmlns="http://www.w3.org/2000/svg">
<path d="M13.4103 17.2109L20.3576 23.0004H6.46289L13.4103 17.2109Z" stroke="white" stroke-width="2" stroke-linecap="round" stroke-linejoin="round"/>
<path d="M4.14734 19.5263C2.64083 17.5238 1.82786 15.0849 1.83156 12.5789C1.83156 6.18389 7.01545 1 13.4105 1C19.8056 1 24.9895 6.18389 24.9895 12.5789C24.9931 15.0849 24.1802 17.5238 22.6737 19.5263" stroke="white" stroke-width="2" stroke-linecap="round" stroke-linejoin="round"/>
<path d="M19.342 16.1978C19.9842 15.1446 20.3343 13.9395 20.3565 12.7062C20.3787 11.4729 20.0721 10.2559 19.4683 9.18029C18.8645 8.10469 17.9852 7.20924 16.9207 6.58596C15.8563 5.96268 14.6451 5.63403 13.4116 5.63379C12.1781 5.63355 10.9668 5.96172 9.90211 6.58459C8.83743 7.20746 7.95777 8.10256 7.35353 9.17793C6.74929 10.2533 6.44225 11.4701 6.46397 12.7035C6.48568 13.9368 6.83536 15.142 7.47708 16.1955" stroke="white" stroke-width="2" stroke-linecap="round" stroke-linejoin="round"/>
<path d="M15.7263 12.5785C15.7263 11.9643 15.4823 11.3753 15.048 10.941C14.6137 10.5067 14.0247 10.2627 13.4105 10.2627C12.7963 10.2627 12.2073 10.5067 11.773 10.941C11.3387 11.3753 11.0947 11.9643 11.0947 12.5785" stroke="white" stroke-width="2" stroke-linecap="round" stroke-linejoin="round"/>
</svg>
