<?xml version="1.0" encoding="utf-8"?>
<!-- Generator: Adobe Illustrator 21.0.0, SVG Export Plug-In . SVG Version: 6.00 Build 0)  -->
<svg width="30" height="23" viewBox="0 0 30 23" fill="none" xmlns="http://www.w3.org/2000/svg">
<path d="M27.049 0.0693359H2.80312C2.08741 0.0693359 1.40101 0.330026 0.894926 0.794057C0.388842 1.25809 0.104526 1.88745 0.104526 2.54369V6.24595H2.80312V2.54369H27.049V19.8364H17.6252V22.3107H27.0601C27.7758 22.3107 28.4622 22.05 28.9683 21.586C29.4744 21.122 29.7587 20.4926 29.7587 19.8364V2.54369C29.7587 1.88745 29.4744 1.25809 28.9683 0.794057C28.4622 0.330026 27.7758 0.0693359 27.0601 0.0693359H27.049ZM0.104526 18.5797V22.282H4.1413C4.1413 21.7958 4.03686 21.3144 3.83394 20.8652C3.63102 20.416 3.3336 20.0079 2.95866 19.6641C2.58372 19.3203 2.13859 19.0476 1.64871 18.8615C1.15882 18.6755 0.633765 18.5797 0.103516 18.5797H0.104526ZM0.104526 13.6403V16.1137C0.989282 16.1136 1.8654 16.2733 2.68282 16.5837C3.50024 16.8941 4.24295 17.3492 4.86852 17.9229C5.49409 18.4965 5.99026 19.1776 6.32869 19.9271C6.66711 20.6767 6.84117 21.48 6.8409 22.2913V22.3107H9.5395C9.54556 17.539 5.33191 13.6662 0.126762 13.6597H0.105537L0.104526 13.6403ZM0.104526 8.70084V11.1752C6.80047 11.1696 12.233 16.1415 12.2381 22.2811V22.3098H14.9367C14.9074 14.8117 8.28217 8.74069 0.104526 8.71938V8.70084Z" fill="white"/>
</svg>

