<?xml version="1.0" encoding="utf-8"?>
<svg width="30" height="22" viewBox="0 0 30 22" fill="none" xmlns="http://www.w3.org/2000/svg">
<path d="M27.1252 0H2.90914C2.19431 0 1.50875 0.255628 1.00329 0.710649C0.497832 1.16567 0.213867 1.78281 0.213867 2.42631V6.05668H2.90914V2.42631H27.1252V19.3832H17.7129V21.8095H27.1363C27.8511 21.8095 28.5367 21.5539 29.0421 21.0989C29.5476 20.6438 29.8315 20.0267 29.8315 19.3832V2.42631C29.8315 1.78281 29.5476 1.16567 29.0421 0.710649C28.5367 0.255628 27.8511 0 27.1363 0H27.1252ZM0.213867 18.151V21.7813H4.24567C4.24567 21.3046 4.14136 20.8325 3.93869 20.392C3.73602 19.9516 3.43897 19.5514 3.06448 19.2143C2.69 18.8772 2.24543 18.6097 1.75615 18.4273C1.26686 18.2449 0.743463 18.151 0.213867 18.151ZM0.213867 13.3074V15.7328C1.09753 15.7327 1.97257 15.8893 2.78898 16.1937C3.6054 16.4981 4.34719 16.9443 4.97199 17.5068C5.59679 18.0694 6.09235 18.7372 6.43036 19.4722C6.76837 20.2072 6.94221 20.9949 6.94194 21.7904V21.8095H9.63721C9.64327 17.1305 5.43482 13.3329 0.236075 13.3265H0.214877L0.213867 13.3074ZM0.213867 8.46391V10.8902C6.90157 10.8848 12.3274 15.7601 12.3325 21.7804V21.8086H15.0278C14.9985 14.4561 8.38144 8.50298 0.213867 8.48208V8.46391Z" fill="#0097FF"/>
</svg>

