<?xml version="1.0" encoding="utf-8"?>
<!-- Svg Vector Icons : http://www.onlinewebfonts.com/icon -->
<!DOCTYPE svg PUBLIC "-//W3C//DTD SVG 1.1//EN" "http://www.w3.org/Graphics/SVG/1.1/DTD/svg11.dtd">
<svg version="1.1" xmlns="http://www.w3.org/2000/svg" xmlns:xlink="http://www.w3.org/1999/xlink" x="0px" y="0px" viewBox="0 0 1000 1000" enable-background="new 0 0 1000 1000" xml:space="preserve">
<metadata> Svg Vector Icons : http://www.onlinewebfonts.com/icon </metadata>
<g><g transform="matrix(1 0 0 -1 0 1952)"><path d="M754.9,1572.2c-14.2,15-22.2,25.4-42.1,31.3c-14.8,4.3-36.4,6.5-64.6,6.5H547.5v-313.9h104.4c25.3,0,45.5,2.4,60.7,7.2c20.2,6.5,36.3,17.1,48.2,28.6c38.3,29.8,37.7,103,37.7,105.1c0,31.8-3.7,58.5-11.1,80.2C779.9,1538.9,769.1,1557.3,754.9,1572.2L754.9,1572.2z M729.7,1377.9c-3.2-10.4-37.4-19.2-45.6-19.8c-8.5-2.2-22.3-1.3-41.4-1.3h-32.9v190.5h22.9c27.9,0,36.4,0.3,45.9-1.9c12.8-2.8,23.4-8.1,31.7-16c8.3-7.9,14.8-14.9,19.4-28.9c4.6-14.1,6.9-34.2,6.9-60.4C736.6,1413.8,734.3,1393.1,729.7,1377.9L729.7,1377.9z M831.9,1799.7H168.1C80.8,1799.7,10,1729,10,1641.7v-379.4c0-87.3,70.8-158.1,158.1-158.1h663.9c87.3,0,158.1,70.8,158.1,158.1v379.4C990,1729,919.2,1799.7,831.9,1799.7z M926.8,1230.7c0-34.9-28.3-63.2-63.2-63.2H136.4c-34.9,0-63.2,28.3-63.2,63.2v442.6c0,34.9,28.3,63.2,63.2,63.2h727.1c34.9,0,63.2-28.3,63.2-63.2V1230.7z M435.8,1461.9c-16,8.4-34.7,10.6-68,18.5c-33.3,7.9-54.3,16.4-63,23.7c-6.8,5.7-10.2,12.6-10.2,20.6c0,8.8,3.6,15.8,10.9,21.1c11.3,8.2,26.9,12.3,46.8,12.3c19.3,0,33.8-3.8,43.4-11.5c9.7-7.7,15.9-13.3,18.9-30.7l68.5,0.4c-1.1,31.2-12.4,51.8-33.9,70.5c-21.5,18.7-53.6,24.1-96.2,24.1c-26.1,0-48.4,0-66.8-7.9c-18.4-7.9-32.6-19.3-42.4-34.4c-9.8-15-14.7-31.2-14.7-48.5c0-26.9,10.4-44.7,31.3-63.4c14.8-13.3,40.6-18.6,77.3-27.6c28.6-7.1,46.9-0.2,54.9-3c11.7-4.2,19.9-7.1,24.7-12.7c4.7-5.6,7.1-12.5,7.1-20.5c0-12.5-5.6-23.4-16.8-32.8c-11.2-9.3-27.8-14-49.9-14c-20.8,0-33.4,5.2-45.7,15.7c-12.3,10.5-20.4,5.2-24.4,27.6l-66.7-0.6c4.5-38,18.2-45.1,41.2-65c23-19.8,52-29.7,94.9-29.7c29.5,0,48.2,4.1,67.9,12.4c19.8,8.2,35,18.9,45.8,35.9c10.8,17,13.6,29.3,13.6,48.7c0,21.4-4.5,27.6-13.5,42.2C461.7,1447.9,451.8,1453.5,435.8,1461.9L435.8,1461.9z"/></g></g>
</svg>