<?xml version="1.0" encoding="utf-8"?>
<!-- Generator: Adobe Illustrator 21.0.0, SVG Export Plug-In . SVG Version: 6.00 Build 0)  -->
<svg width="21" height="15" viewBox="0 0 21 15" fill="none" xmlns="http://www.w3.org/2000/svg">
<path d="M9.23452 0.0824244C9.37135 0.150448 9.48682 0.256911 9.56768 0.389592C9.64854 0.522272 9.6915 0.675793 9.69164 0.83253V14.1677C9.69143 14.3246 9.64833 14.4782 9.56732 14.6108C9.48631 14.7435 9.37066 14.8499 9.23367 14.9178C9.09668 14.9857 8.9439 15.0124 8.7929 14.9947C8.6419 14.977 8.49879 14.9157 8.38004 14.8178L4.56315 11.6674H0.807637C0.593438 11.6674 0.388013 11.5796 0.236551 11.4233C0.08509 11.267 0 11.055 0 10.8339V4.16633C0 3.94529 0.08509 3.7333 0.236551 3.57699C0.388013 3.42069 0.593438 3.33288 0.807637 3.33288H4.56315L8.38004 0.182438C8.49888 0.0844044 8.64213 0.0230046 8.79331 0.00531023C8.94448 -0.0123841 9.09742 0.0143469 9.23452 0.0824244ZM8.07637 2.56611L5.34979 4.81642C5.20682 4.93478 5.0291 4.99944 4.84582 4.99978H1.61527V10.0005H4.84582C5.0291 10.0008 5.20682 10.0655 5.34979 10.1838L8.07637 12.4342V2.56611ZM20.7627 3.57625C20.8379 3.65367 20.8976 3.74564 20.9383 3.8469C20.979 3.94815 21 4.0567 21 4.16633C21 4.27596 20.979 4.38451 20.9383 4.48577C20.8976 4.58702 20.8379 4.67899 20.7627 4.75641L18.1024 7.50013L20.7627 10.2439C20.9144 10.4004 20.9996 10.6126 20.9996 10.8339C20.9996 11.0553 20.9144 11.2675 20.7627 11.424C20.6111 11.5805 20.4054 11.6684 20.1909 11.6684C19.9764 11.6684 19.7708 11.5805 19.6191 11.424L16.9604 8.67863L14.3016 11.424C14.15 11.5805 13.9443 11.6684 13.7298 11.6684C13.5154 11.6684 13.3097 11.5805 13.158 11.424C13.0064 11.2675 12.9212 11.0553 12.9212 10.8339C12.9212 10.6126 13.0064 10.4004 13.158 10.2439L15.8184 7.50013L13.158 4.75641C13.0829 4.67892 13.0234 4.58693 12.9827 4.48568C12.9421 4.38444 12.9212 4.27592 12.9212 4.16633C12.9212 4.05674 12.9421 3.94823 12.9827 3.84698C13.0234 3.74573 13.0829 3.65374 13.158 3.57625C13.3097 3.41975 13.5154 3.33183 13.7298 3.33183C13.836 3.33183 13.9412 3.35341 14.0393 3.39535C14.1374 3.43729 14.2265 3.49876 14.3016 3.57625L16.9604 6.32163L19.6191 3.57625C19.6941 3.49863 19.7833 3.43705 19.8814 3.39504C19.9795 3.35302 20.0847 3.33139 20.1909 3.33139C20.2972 3.33139 20.4023 3.35302 20.5005 3.39504C20.5986 3.43705 20.6877 3.49863 20.7627 3.57625Z" fill="white"/>
</svg>

