<?xml version="1.0" encoding="utf-8"?>
<!-- Generator: Adobe Illustrator 21.0.0, SVG Export Plug-In . SVG Version: 6.00 Build 0)  -->
<svg width="16" height="15" viewBox="0 0 16 15" fill="none" xmlns="http://www.w3.org/2000/svg">
<path d="M10.0016 0.832279C10.0014 0.675446 9.95689 0.521859 9.87329 0.389167C9.78968 0.256475 9.67034 0.150065 9.52896 0.0821645C9.38759 0.014264 9.22993 -0.0123713 9.0741 0.00532037C8.91827 0.023012 8.77059 0.0843122 8.64803 0.182176L4.70908 3.33267H0.833465C0.612416 3.33267 0.400421 3.42049 0.244116 3.57679C0.0878114 3.7331 0 3.94509 0 4.16614V10.8339C0 11.0549 0.0878114 11.2669 0.244116 11.4232C0.400421 11.5795 0.612416 11.6673 0.833465 11.6673H4.70908L8.64803 14.8178C8.77059 14.9157 8.91827 14.977 9.0741 14.9947C9.22993 15.0124 9.38759 14.9857 9.52896 14.9178C9.67034 14.8499 9.78968 14.7435 9.87329 14.6108C9.95689 14.4781 10.0014 14.3246 10.0016 14.1677V0.832279ZM15.044 7.5C15.0453 8.48526 14.8519 9.46106 14.4749 10.3713C14.0978 11.2816 13.5446 12.1084 12.847 12.8042L11.6685 11.6257C12.2111 11.0845 12.6413 10.4414 12.9345 9.73334C13.2278 9.02532 13.3782 8.26633 13.3771 7.5C13.3781 6.73368 13.2276 5.97472 12.9344 5.26671C12.6412 4.5587 12.211 3.9156 11.6685 3.37435L12.847 2.19583C13.5446 2.89162 14.0978 3.7184 14.4749 4.62867C14.8519 5.53894 15.0453 6.51474 15.044 7.5Z" fill="white"/>
</svg>

