<?xml version="1.0" encoding="utf-8"?>
<!-- Generator: Adobe Illustrator 21.0.0, SVG Export Plug-In . SVG Version: 6.00 Build 0)  -->
<svg width="12" height="15" viewBox="0 0 12 15" fill="none" xmlns="http://www.w3.org/2000/svg">
<path d="M4.05909 0H0.940909C0.421259 0 0 0.496484 0 1.10893V13.8911C0 14.5035 0.421259 15 0.940909 15H4.05909C4.57874 15 5 14.5035 5 13.8911V1.10893C5 0.496484 4.57874 0 4.05909 0Z" fill="white"/>
<path d="M11.0591 0H7.94091C7.42126 0 7 0.496484 7 1.10893V13.8911C7 14.5035 7.42126 15 7.94091 15H11.0591C11.5787 15 12 14.5035 12 13.8911V1.10893C12 0.496484 11.5787 0 11.0591 0Z" fill="white"/>
</svg>

