<?xml version="1.0" encoding="utf-8"?>
<!-- Svg Vector Icons : http://www.onlinewebfonts.com/icon -->
<!DOCTYPE svg PUBLIC "-//W3C//DTD SVG 1.1//EN" "http://www.w3.org/Graphics/SVG/1.1/DTD/svg11.dtd">
<svg version="1.1" xmlns="http://www.w3.org/2000/svg" xmlns:xlink="http://www.w3.org/1999/xlink" x="0px" y="0px" viewBox="0 0 1000 1000" enable-background="new 0 0 1000 1000" xml:space="preserve">
<metadata> Svg Vector Icons : http://www.onlinewebfonts.com/icon </metadata>
<g><g><path d="M635.3,581.7V418.3H745v163.3H635.3z M553.6,336.7v326.7h219.5c15.3,0,28.1-5.1,38.3-15.3c10.2-10.2,15.3-23,15.3-38.3V390.3c0-15.3-5.1-28.1-15.3-38.3c-10.2-10.2-23-15.3-38.3-15.3H553.6z M446.4,663.3V336.7h-81.7v135.3H255V336.7h-81.7v326.7H255V553.6h109.7v109.7H446.4z M880.3,10c28.9,0,54.4,11.1,76.6,33.2c22.1,22.1,33.2,47.6,33.2,76.6v760.5c0,28.9-11.1,54.4-33.2,76.6c-22.1,22.1-47.6,33.2-76.6,33.2H119.7c-30.6,0-56.6-11.1-77.8-33.2C20.6,934.7,10,909.2,10,880.3V119.7c0-28.9,10.6-54.4,31.9-76.6C63.2,21.1,89.1,10,119.7,10H880.3z"/></g></g>
</svg>