<?xml version="1.0" encoding="utf-8"?>
<!-- Generator: Adobe Illustrator 21.0.0, SVG Export Plug-In . SVG Version: 6.00 Build 0)  -->
<svg width="23" height="23" viewBox="0 0 23 23" fill="none" xmlns="http://www.w3.org/2000/svg">
<path d="M13.2849 22.3107H9.24198C8.98866 22.3108 8.74294 22.2241 8.54557 22.0651C8.34819 21.9061 8.21103 21.6844 8.15682 21.4366L7.70476 19.3415C7.10171 19.0769 6.52989 18.7461 5.99983 18.3551L3.95946 19.0056C3.71795 19.0828 3.45737 19.0748 3.22098 18.9832C2.98458 18.8916 2.78661 18.7217 2.65994 18.5019L0.634008 14.9977C0.50866 14.7777 0.461607 14.5216 0.500549 14.2713C0.53949 14.021 0.662119 13.7913 0.848374 13.6199L2.43113 12.1742C2.35915 11.5193 2.35915 10.8585 2.43113 10.2036L0.848374 8.76127C0.661855 8.58976 0.539059 8.35989 0.500112 8.10935C0.461164 7.85881 0.508376 7.60246 0.634008 7.3823L2.65549 3.87595C2.78217 3.65611 2.98014 3.48627 3.21653 3.39463C3.45292 3.30299 3.71351 3.29507 3.95502 3.37218L5.99539 4.02274C6.2664 3.82257 6.54852 3.63574 6.83952 3.46671C7.12053 3.30879 7.40931 3.16534 7.70476 3.03745L8.15793 0.944534C8.21188 0.696763 8.34878 0.474894 8.54595 0.315713C8.74312 0.156533 8.9887 0.0696028 9.24198 0.0693359H13.2849C13.5382 0.0696028 13.7838 0.156533 13.981 0.315713C14.1781 0.474894 14.315 0.696763 14.369 0.944534L14.8266 3.03856C15.1376 3.17646 15.4419 3.33103 15.7363 3.5034C16.0106 3.66243 16.2761 3.83703 16.5315 4.02497L18.573 3.3744C18.8144 3.29758 19.0747 3.30565 19.3109 3.39727C19.547 3.48889 19.7448 3.65857 19.8714 3.87817L21.8929 7.38453C22.1506 7.83714 22.0617 8.40985 21.6786 8.76238L20.0958 10.2081C20.1678 10.863 20.1678 11.5238 20.0958 12.1787L21.6786 13.6243C22.0617 13.978 22.1506 14.5496 21.8929 15.0022L19.8714 18.5085C19.7448 18.7284 19.5468 18.8982 19.3104 18.9899C19.074 19.0815 18.8134 19.0894 18.5719 19.0123L16.5315 18.3618C16.0019 18.7525 15.4304 19.0829 14.8277 19.347L14.369 21.4366C14.3148 21.6842 14.1778 21.9058 13.9807 22.0648C13.7835 22.2237 13.5381 22.3105 13.2849 22.3107ZM11.259 6.74175C10.0807 6.74175 8.95066 7.21041 8.11747 8.04462C7.28428 8.87883 6.8162 10.0103 6.8162 11.19C6.8162 12.3698 7.28428 13.5012 8.11747 14.3354C8.95066 15.1696 10.0807 15.6383 11.259 15.6383C12.4373 15.6383 13.5674 15.1696 14.4006 14.3354C15.2338 13.5012 15.7018 12.3698 15.7018 11.19C15.7018 10.0103 15.2338 8.87883 14.4006 8.04462C13.5674 7.21041 12.4373 6.74175 11.259 6.74175Z" fill="#0097FF"/>
</svg>
