<?xml version="1.0" encoding="utf-8"?>
<!-- Generator: Adobe Illustrator 21.0.0, SVG Export Plug-In . SVG Version: 6.00 Build 0)  -->
<svg width="15" height="15" viewBox="0 0 15 15" fill="none" xmlns="http://www.w3.org/2000/svg">
<path d="M8.64189 15H5.91189C5.74084 15 5.57492 14.9416 5.44164 14.8344C5.30837 14.7271 5.21575 14.5776 5.17914 14.4105L4.87389 12.9975C4.46668 12.8191 4.08057 12.596 3.72264 12.3323L2.34489 12.771C2.18181 12.823 2.00585 12.8177 1.84623 12.7559C1.68661 12.6941 1.55293 12.5795 1.46739 12.4313L0.0993908 10.068C0.0147498 9.9196 -0.0170223 9.74687 0.00927257 9.57806C0.0355675 9.40926 0.118372 9.25437 0.244141 9.13875L1.31289 8.16375C1.26429 7.72208 1.26429 7.27642 1.31289 6.83475L0.244141 5.862C0.118194 5.74633 0.0352767 5.59131 0.00897752 5.42234C-0.0173217 5.25337 0.0145578 5.08048 0.0993908 4.932L1.46439 2.56725C1.54993 2.41899 1.68361 2.30444 1.84323 2.24264C2.00285 2.18084 2.17881 2.1755 2.34189 2.2275L3.71964 2.66625C3.90264 2.53125 4.09314 2.40525 4.28964 2.29125C4.47939 2.18475 4.67439 2.088 4.87389 2.00175L5.17989 0.59025C5.21632 0.423148 5.30876 0.273516 5.4419 0.166162C5.57504 0.0588074 5.74086 0.000179974 5.91189 0H8.64189C8.81292 0.000179974 8.97875 0.0588074 9.11188 0.166162C9.24502 0.273516 9.33746 0.423148 9.37389 0.59025L9.68289 2.0025C9.89289 2.0955 10.0984 2.19975 10.2971 2.316C10.4824 2.42325 10.6616 2.541 10.8341 2.66775L12.2126 2.229C12.3756 2.17719 12.5514 2.18263 12.7109 2.24442C12.8703 2.30621 13.0039 2.42065 13.0894 2.56875L14.4544 4.9335C14.6284 5.23875 14.5684 5.625 14.3096 5.86275L13.2409 6.83775C13.2895 7.27942 13.2895 7.72508 13.2409 8.16675L14.3096 9.14175C14.5684 9.38025 14.6284 9.76575 14.4544 10.071L13.0894 12.4357C13.0039 12.584 12.8702 12.6986 12.7106 12.7604C12.5509 12.8222 12.375 12.8275 12.2119 12.7755L10.8341 12.3368C10.4765 12.6003 10.0906 12.8231 9.68364 13.0012L9.37389 14.4105C9.33731 14.5775 9.2448 14.7269 9.11168 14.8341C8.97856 14.9413 8.81281 14.9999 8.64189 15ZM7.27389 4.5C6.47824 4.5 5.71518 4.81607 5.15257 5.37868C4.58996 5.94129 4.27389 6.70435 4.27389 7.5C4.27389 8.29565 4.58996 9.05871 5.15257 9.62132C5.71518 10.1839 6.47824 10.5 7.27389 10.5C8.06954 10.5 8.8326 10.1839 9.39521 9.62132C9.95782 9.05871 10.2739 8.29565 10.2739 7.5C10.2739 6.70435 9.95782 5.94129 9.39521 5.37868C8.8326 4.81607 8.06954 4.5 7.27389 4.5Z" fill="white"/>
</svg>

